<svg xmlns="http://www.w3.org/2000/svg" viewBox="0 0 10 11.01"><defs><style>.cls-1{isolation:isolate;}.cls-2{opacity:0.6;mix-blend-mode:multiply;}.cls-3{fill:#fff;opacity:0;}.cls-4{fill:#fcfbfa;opacity:0.04;}.cls-5{fill:#f8f8f6;opacity:0.08;}.cls-6{fill:#f5f4f1;opacity:0.11;}.cls-7{fill:#f2f1ed;opacity:0.15;}.cls-8{fill:#eeede8;opacity:0.19;}.cls-9{fill:#ebeae4;opacity:0.23;}.cls-10{fill:#e8e6df;opacity:0.27;}.cls-11{fill:#e4e3da;opacity:0.3;}.cls-12{fill:#e1dfd6;opacity:0.34;}.cls-13{fill:#dedcd1;opacity:0.38;}.cls-14{fill:#dad8cd;opacity:0.42;}.cls-15{fill:#d7d5c8;opacity:0.46;}.cls-16{fill:#d4d1c4;opacity:0.5;}.cls-17{fill:#d0cebf;opacity:0.53;}.cls-18{fill:#cdcaba;opacity:0.57;}.cls-19{fill:#cac7b6;opacity:0.61;}.cls-20{fill:#c6c3b1;opacity:0.65;}.cls-21{fill:#c3c0ad;opacity:0.69;}.cls-22{fill:#c0bca8;opacity:0.72;}.cls-23{fill:#bcb9a4;opacity:0.76;}.cls-24{fill:#b9b59f;opacity:0.8;}.cls-25{fill:#fcfcfc;opacity:0.04;}.cls-26{fill:#f8f8f8;opacity:0.08;}.cls-27{fill:#f5f5f5;opacity:0.12;}.cls-28{fill:#f2f2f2;opacity:0.16;}.cls-29{fill:#eee;opacity:0.2;}.cls-30{fill:#ebebeb;opacity:0.24;}.cls-31{fill:#e8e8e8;opacity:0.28;}.cls-32{fill:#e4e4e4;opacity:0.32;}.cls-33{fill:#e1e1e1;opacity:0.36;}.cls-34{fill:#dedede;opacity:0.4;}.cls-35{fill:#dadada;opacity:0.45;}.cls-36{fill:#d7d7d7;opacity:0.49;}.cls-37{fill:#d4d4d4;opacity:0.53;}.cls-38{fill:#d0d0d0;opacity:0.57;}.cls-39{fill:#cdcdcd;opacity:0.61;}.cls-40{fill:#cacaca;opacity:0.65;}.cls-41{fill:#c6c6c6;opacity:0.69;}.cls-42{fill:#c3c3c3;opacity:0.73;}.cls-43{fill:silver;opacity:0.77;}.cls-44{fill:#bcbcbc;opacity:0.81;}.cls-45{fill:#b9b9b9;opacity:0.85;}.cls-46{fill:#eff3f4;}.cls-47{fill:#dbdfe0;}.cls-48{fill:#ed1c24;}.cls-49{fill:#f0f3f2;}</style></defs><title>pdf</title><g class="cls-1"><g id="Layer_2" data-name="Layer 2"><g id="Layer_1-2" data-name="Layer 1"><g id="_Group_" data-name="&lt;Group&gt;" class="cls-2"><g id="_Group_2" data-name="&lt;Group&gt;"><path id="_Path_" data-name="&lt;Path&gt;" class="cls-3" d="M8.15,10.23c0,.33-2.05.3-3.55.3s-2.71-.15-2.71-.34S3.1,9.85,4.6,9.85,8.15,9.92,8.15,10.23Z"/><path class="cls-4" d="M8,10.23c0,.32-2,.29-3.39.29S2,10.37,2,10.19a5.62,5.62,0,0,1,2.59-.32C6.05,9.87,8,9.94,8,10.23Z"/><path class="cls-5" d="M7.87,10.23c0,.3-1.86.27-3.22.27a5.19,5.19,0,0,1-2.47-.31,5.19,5.19,0,0,1,2.47-.31C6,9.88,7.87,10,7.87,10.23Z"/><path class="cls-6" d="M7.73,10.22c0,.29-1.77.26-3.06.26s-2.34-.12-2.34-.29A5,5,0,0,1,4.67,9.9C6,9.9,7.73,10,7.73,10.22Z"/><path class="cls-7" d="M7.59,10.22c0,.27-1.67.25-2.9.25s-2.21-.12-2.21-.28a4.67,4.67,0,0,1,2.21-.28C5.92,9.91,7.59,10,7.59,10.22Z"/><path class="cls-8" d="M7.45,10.22c0,.26-1.58.23-2.73.23s-2.1-.11-2.1-.26a4.52,4.52,0,0,1,2.1-.26C5.87,9.93,7.45,10,7.45,10.22Z"/><path class="cls-9" d="M7.31,10.22c0,.24-1.48.22-2.57.22s-2-.11-2-.25.88-.25,2-.25S7.31,10,7.31,10.22Z"/><path class="cls-10" d="M7.17,10.22c0,.22-1.39.2-2.41.2s-1.84-.1-1.84-.23S3.74,10,4.76,10,7.17,10,7.17,10.22Z"/><path class="cls-11" d="M7,10.21c0,.21-1.28.19-2.23.2a3.6,3.6,0,0,1-1.73-.22A3.6,3.6,0,0,1,4.79,10C5.74,10,7,10,7,10.21Z"/><path class="cls-12" d="M6.88,10.21c0,.2-1.19.18-2.07.18a3.39,3.39,0,0,1-1.6-.2,3.39,3.39,0,0,1,1.6-.2C5.69,10,6.88,10,6.88,10.21Z"/><path class="cls-13" d="M6.74,10.21c0,.18-1.09.16-1.91.16a3.15,3.15,0,0,1-1.47-.18A3.08,3.08,0,0,1,4.83,10C5.65,10,6.74,10,6.74,10.21Z"/><path class="cls-14" d="M6.6,10.21c0,.16-1,.15-1.74.15a2.93,2.93,0,0,1-1.36-.17c0-.1.61-.17,1.36-.17S6.6,10.05,6.6,10.21Z"/><path class="cls-15" d="M6.46,10.2c0,.15-.9.14-1.58.14a2.69,2.69,0,0,1-1.23-.15c0-.09.55-.16,1.23-.16S6.46,10.07,6.46,10.2Z"/><path class="cls-16" d="M6.32,10.2c0,.13-.81.13-1.42.13a2.38,2.38,0,0,1-1.1-.14c0-.08.49-.14,1.1-.14S6.32,10.08,6.32,10.2Z"/><path class="cls-17" d="M6.18,10.2c0,.12-.71.11-1.26.11s-1-.05-1-.12.43-.13,1-.13S6.18,10.09,6.18,10.2Z"/><path class="cls-18" d="M6,10.2c0,.1-.62.09-1.09.09a1.73,1.73,0,0,1-.86-.1A1.8,1.8,0,0,1,5,10.08C5.42,10.08,6,10.1,6,10.2Z"/><path class="cls-19" d="M5.9,10.19c0,.09-.53.09-.93.09a1.56,1.56,0,0,1-.73-.09c0-.06.33-.1.73-.1S5.9,10.11,5.9,10.19Z"/><path class="cls-20" d="M5.76,10.19c0,.07-.43.07-.77.07a1.33,1.33,0,0,1-.6-.07s.27-.08.6-.08S5.76,10.13,5.76,10.19Z"/><path class="cls-21" d="M5.62,10.19c0,.06-.34.06-.6.06s-.49,0-.49-.07A1.1,1.1,0,0,1,5,10.12C5.28,10.12,5.62,10.14,5.62,10.19Z"/><path class="cls-22" d="M5.48,10.19s-.24,0-.44,0-.36,0-.36-.05a.88.88,0,0,1,.36,0C5.24,10.14,5.48,10.15,5.48,10.19Z"/><path class="cls-23" d="M5.34,10.19a.7.7,0,0,1-.28,0c-.13,0-.23,0-.23,0a.56.56,0,0,1,.23,0C5.19,10.15,5.34,10.16,5.34,10.19Z"/><path id="_Path_2" data-name="&lt;Path&gt;" class="cls-24" d="M5.2,10.18s0,0-.11,0-.11,0-.11,0H5.2Z"/></g><g id="_Group_3" data-name="&lt;Group&gt;"><ellipse id="_Path_3" data-name="&lt;Path&gt;" class="cls-3" cx="5" cy="10.16" rx="5" ry="0.85" transform="translate(-0.01 0.01) rotate(-0.06)"/><path class="cls-25" d="M9.79,10.15c0,.45-2.15.82-4.79.82S.23,10.61.23,10.16,2.37,9.35,5,9.34,9.79,9.7,9.79,10.15Z"/><path class="cls-26" d="M9.57,10.15c0,.43-2.05.78-4.56.78S.46,10.59.46,10.16s2-.77,4.55-.78S9.57,9.73,9.57,10.15Z"/><path class="cls-27" d="M9.36,10.16c0,.4-2,.73-4.35.74S.68,10.57.68,10.16,2.62,9.42,5,9.42,9.36,9.75,9.36,10.16Z"/><path class="cls-28" d="M9.14,10.16c0,.38-1.86.69-4.13.7s-4.1-.31-4.1-.7,1.84-.7,4.1-.7S9.14,9.77,9.14,10.16Z"/><path class="cls-29" d="M8.93,10.16c0,.36-1.77.66-3.91.66s-3.88-.29-3.88-.66S2.87,9.5,5,9.5,8.93,9.79,8.93,10.16Z"/><path class="cls-30" d="M8.72,10.16c0,.34-1.68.62-3.7.62s-3.65-.27-3.65-.62S3,9.54,5,9.54,8.72,9.82,8.72,10.16Z"/><path class="cls-31" d="M8.5,10.16c0,.32-1.58.58-3.48.58s-3.43-.25-3.43-.57S3.13,9.58,5,9.58,8.5,9.84,8.5,10.16Z"/><path class="cls-32" d="M8.29,10.16c0,.3-1.49.54-3.26.54s-3.21-.24-3.21-.53S3.26,9.62,5,9.62,8.29,9.86,8.29,10.16Z"/><path class="cls-33" d="M8.07,10.16c0,.28-1.39.5-3,.51s-3-.23-3-.5,1.33-.51,3-.51S8.07,9.88,8.07,10.16Z"/><path class="cls-34" d="M7.86,10.16c0,.26-1.31.47-2.83.47s-2.75-.21-2.75-.46S3.51,9.7,5,9.7,7.86,9.91,7.86,10.16Z"/><path class="cls-35" d="M7.65,10.16c0,.24-1.22.43-2.61.43S2.5,10.4,2.5,10.17,3.64,9.74,5,9.74,7.65,9.93,7.65,10.16Z"/><path class="cls-36" d="M7.43,10.17c0,.21-1.12.38-2.39.38s-2.31-.17-2.31-.38,1-.39,2.31-.39S7.43,10,7.43,10.17Z"/><path class="cls-37" d="M7.22,10.17c0,.19-1,.34-2.18.34S3,10.36,3,10.17,3.89,9.82,5,9.82,7.22,10,7.22,10.17Z"/><path class="cls-38" d="M7,10.17c0,.17-.93.3-1.95.31s-1.86-.14-1.86-.31S4,9.86,5.05,9.86,7,10,7,10.17Z"/><path class="cls-39" d="M6.79,10.17c0,.15-.84.27-1.74.27s-1.64-.12-1.64-.27.74-.27,1.64-.27S6.79,10,6.79,10.17Z"/><path class="cls-40" d="M6.58,10.17c0,.13-.75.23-1.53.23s-1.41-.1-1.41-.23.63-.23,1.41-.23S6.58,10,6.58,10.17Z"/><path class="cls-41" d="M6.36,10.17c0,.11-.65.19-1.31.19s-1.18-.08-1.18-.19S4.4,10,5.05,10,6.36,10.06,6.36,10.17Z"/><path class="cls-42" d="M6.15,10.17c0,.09-.56.15-1.09.15s-1-.06-1-.15.43-.15,1-.15A2.37,2.37,0,0,1,6.15,10.17Z"/><path class="cls-43" d="M5.93,10.17c0,.07-.46.11-.87.11s-.74,0-.74-.11.33-.11.74-.11A2.07,2.07,0,0,1,5.93,10.17Z"/><path class="cls-44" d="M5.72,10.17c0,.05-.37.08-.66.08s-.51,0-.51-.08.23-.07.51-.07A1.89,1.89,0,0,1,5.72,10.17Z"/><path id="_Path_4" data-name="&lt;Path&gt;" class="cls-45" d="M5.5,10.18a1.85,1.85,0,0,1-.43,0,.59.59,0,0,1-.29,0,.66.66,0,0,1,.29,0A1.66,1.66,0,0,1,5.5,10.18Z"/></g></g><g id="_Group_4" data-name="&lt;Group&gt;"><path id="_Path_5" data-name="&lt;Path&gt;" class="cls-46" d="M6.13,1.55V0h-4a.27.27,0,0,0-.27.28V8.07a.35.35,0,0,0,.34.35H7.82a.35.35,0,0,0,.34-.35V2H6.55A.42.42,0,0,1,6.13,1.55Z"/><path id="_Path_6" data-name="&lt;Path&gt;" class="cls-47" d="M6.13,0V1.65A.32.32,0,0,0,6.45,2H8.16Z"/><path id="_Rectangle_" data-name="&lt;Rectangle&gt;" class="cls-48" d="M1.84,6H8.16a0,0,0,0,1,0,0v.49a2,2,0,0,1-2,2H3.8a2,2,0,0,1-2-2V6A0,0,0,0,1,1.84,6Z"/><g id="_Group_5" data-name="&lt;Group&gt;"><path id="_Path_7" data-name="&lt;Path&gt;" class="cls-48" d="M4.91,1.93a1.17,1.17,0,0,1-.23-.58A.5.5,0,0,1,4.75,1c.14-.21.32,0,.33.17a2.69,2.69,0,0,1-.16.68l-.19.72c-.11.43-.21.86-.34,1.29A3.56,3.56,0,0,1,3.9,5a.73.73,0,0,1-.53.39A.31.31,0,0,1,3.09,5c.09-.18.35-.24.52-.3l.69-.24L5.63,4l.62-.17a1.12,1.12,0,0,1,.32,0c.15,0,.43.16.2.31s-.54,0-.7-.18a2.49,2.49,0,0,1-.42-.6c-.27-.46-.51-.92-.74-1.39,0-.1-.18,0-.14.08A16.52,16.52,0,0,0,5.7,3.7c.23.35.75.84,1.19.5a.28.28,0,0,0,0-.46.78.78,0,0,0-.65-.09c-.31.06-.62.17-.92.26s-.62.19-.93.3-.63.21-.94.33-.44.15-.52.36a.47.47,0,0,0,.65.6A1.27,1.27,0,0,0,4.11,5a3.46,3.46,0,0,0,.33-.73c.2-.58.34-1.2.49-1.8.1-.35.21-.71.28-1.06S5.22.83,5,.77s-.4.21-.42.42A1.22,1.22,0,0,0,4.77,2c.06.08.2,0,.14-.08Z"/></g><g id="_Group_6" data-name="&lt;Group&gt;"><path id="_Compound_Path_" data-name="&lt;Compound Path&gt;" class="cls-49" d="M3.35,6.49l.35,0a.62.62,0,0,1,.4.11.38.38,0,0,1,.13.3.45.45,0,0,1-.11.31.62.62,0,0,1-.44.15H3.53V7.9H3.35Zm.18.69h.16c.22,0,.35-.1.35-.3s-.13-.28-.33-.28l-.18,0Z"/><path id="_Compound_Path_2" data-name="&lt;Compound Path&gt;" class="cls-49" d="M4.47,6.49l.4,0a.83.83,0,0,1,.57.17.65.65,0,0,1,.2.51.77.77,0,0,1-.2.56.88.88,0,0,1-.63.2H4.47Zm.19,1.27h.18a.55.55,0,0,0,.61-.61.51.51,0,0,0-.58-.55l-.21,0Z"/><path id="_Compound_Path_3" data-name="&lt;Compound Path&gt;" class="cls-49" d="M5.88,6.48h.77v.15H6.07V7.1h.54v.16H6.07V7.9H5.88Z"/></g></g></g></g></g></svg>