<svg xmlns="http://www.w3.org/2000/svg" viewBox="0 0 20.26 27.41"><defs><style>.cls-1{fill:#939598;}.cls-2{fill:#1b75bc;}.cls-3{fill:#fff;}</style></defs><title>logo-transparent</title><g id="Layer_2" data-name="Layer 2"><g id="Layer_1-2" data-name="Layer 1"><path class="cls-1" d="M17.15,5.78a11.21,11.21,0,0,0-1.73-1.57A11.92,11.92,0,0,0,6.35,2,12.1,12.1,0,0,0,1.44,3.91c.47,0,.94,0,1.41,0a10.62,10.62,0,0,1,4.47,1,10.47,10.47,0,0,1,3.76,3.2.86.86,0,0,0,.31.29A14.26,14.26,0,0,0,14,9.58a6,6,0,0,1-3.83-1.37,1.55,1.55,0,0,0-.7-.4.66.66,0,0,0-.66.24.49.49,0,0,0-.12.3A.7.7,0,0,0,9.12,9c2.68,1.23,4.36,1.38,5.41,1.09a2.24,2.24,0,0,0,1.45-3,9.36,9.36,0,0,0-.66-1.25,3.25,3.25,0,0,1,1.49.84,3.08,3.08,0,0,1,.83,1.52A8.05,8.05,0,0,0,17.15,5.78Z"/><path class="cls-2" d="M16.3,11.41a8.49,8.49,0,0,1-2.88,1.19A5.6,5.6,0,0,0,16.3,11.41Z"/><path class="cls-3" d="M20,11.17a11.85,11.85,0,0,0-2.8-5.39,8.05,8.05,0,0,1,.49,2.4,2.94,2.94,0,0,1-.75,2.76,5.29,5.29,0,0,1-.59.47,5.6,5.6,0,0,1-2.88,1.19s.76,2.23-.39,2.85a23.43,23.43,0,0,0,2.62,3.18,4.08,4.08,0,0,1-1.83,1.82,2.26,2.26,0,0,1-1.36.1,3.85,3.85,0,0,0-1-1.94c.13.38.37.71.48,1.1a3.06,3.06,0,0,1,.08.95c-.34.14-.68.29-1,.4a3.8,3.8,0,0,0-1.31-2.53,7.89,7.89,0,0,0-3.16-1.2c-.22-.07-.53-.06-.63-.31a4.44,4.44,0,0,1-.23-3.34,3.18,3.18,0,0,0-.87,2,5.1,5.1,0,0,0,.82,2.58A13.35,13.35,0,0,0,0,22.6a12.23,12.23,0,0,0,6.29,3.1,12.26,12.26,0,0,0,5.58-.41A12,12,0,0,0,20,11.17Z"/><path class="cls-1" d="M3.32,8.17c1.13.42,2.23.93,3.35,1.38a10.72,10.72,0,0,1-1.95-.24,6.91,6.91,0,0,0,1.62,2.51,4,4,0,0,1-2.2-1.89A9.07,9.07,0,0,1,3.32,8.17Z"/><path class="cls-3" d="M12.36,14.16c0-.08,0-.16-.08-.23A4.16,4.16,0,0,0,11,12.24a2.13,2.13,0,0,0,0,1.57c.58,1.3,1.54,1.1,1.54,1.1Z"/><rect class="cls-3" x="5.54" y="24.79" width="2.93" height="1.75" rx="0.44" ry="0.44" transform="translate(33.15 20.75) rotate(94.6)"/><rect class="cls-3" x="8.66" y="25.04" width="2.93" height="1.75" rx="0.44" ry="0.44" transform="translate(36.77 17.91) rotate(94.6)"/><rect class="cls-1" x="7.48" y="0.62" width="2.93" height="1.75" rx="0.44" ry="0.44" transform="translate(11.16 -7.3) rotate(94.6)"/><rect class="cls-1" x="10.6" y="0.87" width="2.93" height="1.75" rx="0.44" ry="0.44" transform="translate(14.78 -10.14) rotate(94.6)"/></g></g></svg>