<svg xmlns="http://www.w3.org/2000/svg" viewBox="0 0 24.01 24.01"><defs><style>.cls-1{fill:none;}.cls-2{fill:#183863;}</style></defs><title>upload-blue</title><g id="Layer_2" data-name="Layer 2"><g id="Layer_1-2" data-name="Layer 1"><rect class="cls-1" width="24.01" height="24.01"/><path class="cls-2" d="M18.76,17.26H5.25A2.25,2.25,0,0,0,3,19.51v.75a2.25,2.25,0,0,0,2.25,2.25H18.76A2.25,2.25,0,0,0,21,20.26v-.75A2.25,2.25,0,0,0,18.76,17.26Zm-1-9.19L13.33,2.88a1.71,1.71,0,0,0-2.65,0L6.25,8.07A1,1,0,0,0,6.9,9.75H9v3c0,1.5.28,2.25,1.5,2.25h3c1.22,0,1.5-.75,1.5-2.25v-3h2.1A1,1,0,0,0,17.76,8.07ZM17.63,21a1.13,1.13,0,1,1,1.13-1.13A1.13,1.13,0,0,1,17.63,21Z"/></g></g></svg>