<svg xmlns="http://www.w3.org/2000/svg" xmlns:xlink="http://www.w3.org/1999/xlink" viewBox="0 0 9.05 10.91"><defs><style>.cls-1{fill:url(#Dégradé_sans_nom_18);}.cls-2{fill:url(#Eau_7);}</style><linearGradient id="Dégradé_sans_nom_18" x1="1.75" y1="1.16" x2="7.78" y2="8.34" gradientUnits="userSpaceOnUse"><stop offset="0" stop-color="#4d4d4d"/><stop offset="1" stop-color="#1a1a1a"/></linearGradient><linearGradient id="Eau_7" x1="4.07" y1="3.93" x2="5.77" y2="5.96" gradientUnits="userSpaceOnUse"><stop offset="0" stop-color="#69afe0"/><stop offset="0.1" stop-color="#60addf"/><stop offset="0.26" stop-color="#46a6dc"/><stop offset="0.46" stop-color="#1d9bd7"/><stop offset="0.58" stop-color="#0094d3"/><stop offset="1" stop-color="#007fc3"/></linearGradient></defs><title>secure-transparent</title><g id="Layer_2" data-name="Layer 2"><g id="Layer_1-2" data-name="Layer 1"><path class="cls-1" d="M9,2.62l-.16-.14A12.39,12.39,0,0,0,4.68,0L4.55,0h0L4.37,0A12.49,12.49,0,0,0,.18,2.48L0,2.62a.06.06,0,0,0,0,.06v.21A11,11,0,0,0,.59,5.84,10.4,10.4,0,0,0,1.84,8.41a8.31,8.31,0,0,0,2.4,2.33l.24.16h.09l.24-.16a8.31,8.31,0,0,0,2.4-2.33A10.06,10.06,0,0,0,8.46,5.84a11.83,11.83,0,0,0,.59-2.95V2.68A.08.08,0,0,0,9,2.62ZM8,3.14a10.78,10.78,0,0,1-.51,2.39A8,8,0,0,1,4.57,9.62a.07.07,0,0,1-.09,0A8,8,0,0,1,1.61,5.53a10.38,10.38,0,0,1-.52-2.39.11.11,0,0,1,0-.07A11.91,11.91,0,0,1,4.5,1.12h0A11.91,11.91,0,0,1,7.93,3.07S8,3.12,8,3.14Z"/><path class="cls-2" d="M6.49,3.3s0,0,0,0L4.16,5.76s0,0,0,0l-1-1a0,0,0,0,0-.06,0l-.67.73s0,0,0,0L4.17,7.26a0,0,0,0,0,0,0L7.22,4s0,0,0,0Z"/></g></g></svg>